<?xml version="1.0" encoding="UTF-8"?>
<!DOCTYPE svg PUBLIC "-//W3C//DTD SVG 1.1//EN" "http://www.w3.org/Graphics/SVG/1.1/DTD/svg11.dtd">
<svg width="160mm" height="90mm" viewBox="0 0 16000 9000" version="1.1" xmlns="http://www.w3.org/2000/svg" stroke-width="28.222" stroke-linejoin="round" xml:space="preserve">
 <path fill="rgb(255,255,255)" stroke="none" d="M 7999,9004 L 0,9004 0,0 15997,0 15997,9004 7999,9004 Z"/>
 <path fill="none" stroke="rgb(179,179,179)" stroke-linejoin="round" d="M 8582,7196 L 1766,7196 1766,1474 15399,1474 15399,7196 8582,7196 Z"/>
 <path fill="none" stroke="rgb(179,179,179)" stroke-linejoin="round" d="M 1766,1472 L 1766,7195"/>
 <path fill="none" stroke="rgb(179,179,179)" stroke-linejoin="round" d="M 2739,1472 L 2739,7195"/>
 <path fill="none" stroke="rgb(179,179,179)" stroke-linejoin="round" d="M 3713,1472 L 3713,7195"/>
 <path fill="none" stroke="rgb(179,179,179)" stroke-linejoin="round" d="M 4687,1472 L 4687,7195"/>
 <path fill="none" stroke="rgb(179,179,179)" stroke-linejoin="round" d="M 5661,1472 L 5661,7195"/>
 <path fill="none" stroke="rgb(179,179,179)" stroke-linejoin="round" d="M 6635,1472 L 6635,7195"/>
 <path fill="none" stroke="rgb(179,179,179)" stroke-linejoin="round" d="M 7609,1472 L 7609,7195"/>
 <path fill="none" stroke="rgb(179,179,179)" stroke-linejoin="round" d="M 8582,1472 L 8582,7195"/>
 <path fill="none" stroke="rgb(179,179,179)" stroke-linejoin="round" d="M 9555,1472 L 9555,7195"/>
 <path fill="none" stroke="rgb(179,179,179)" stroke-linejoin="round" d="M 10529,1472 L 10529,7195"/>
 <path fill="none" stroke="rgb(179,179,179)" stroke-linejoin="round" d="M 11503,1472 L 11503,7195"/>
 <path fill="none" stroke="rgb(179,179,179)" stroke-linejoin="round" d="M 12477,1472 L 12477,7195"/>
 <path fill="none" stroke="rgb(179,179,179)" stroke-linejoin="round" d="M 13451,1472 L 13451,7195"/>
 <path fill="none" stroke="rgb(179,179,179)" stroke-linejoin="round" d="M 14425,1472 L 14425,7195"/>
 <path fill="none" stroke="rgb(179,179,179)" stroke-linejoin="round" d="M 15399,1472 L 15399,7195"/>
 <path fill="none" stroke="rgb(179,179,179)" stroke-linejoin="round" d="M 15399,7195 L 1766,7195"/>
 <path fill="none" stroke="rgb(179,179,179)" stroke-linejoin="round" d="M 15399,6622 L 1766,6622"/>
 <path fill="none" stroke="rgb(179,179,179)" stroke-linejoin="round" d="M 15399,6050 L 1766,6050"/>
 <path fill="none" stroke="rgb(179,179,179)" stroke-linejoin="round" d="M 15399,5478 L 1766,5478"/>
 <path fill="none" stroke="rgb(179,179,179)" stroke-linejoin="round" d="M 15399,4905 L 1766,4905"/>
 <path fill="none" stroke="rgb(179,179,179)" stroke-linejoin="round" d="M 15399,4334 L 1766,4334"/>
 <path fill="none" stroke="rgb(179,179,179)" stroke-linejoin="round" d="M 15399,3762 L 1766,3762"/>
 <path fill="none" stroke="rgb(179,179,179)" stroke-linejoin="round" d="M 15399,3189 L 1766,3189"/>
 <path fill="none" stroke="rgb(179,179,179)" stroke-linejoin="round" d="M 15399,2617 L 1766,2617"/>
 <path fill="none" stroke="rgb(179,179,179)" stroke-linejoin="round" d="M 15399,2045 L 1766,2045"/>
 <path fill="none" stroke="rgb(179,179,179)" stroke-linejoin="round" d="M 15399,1472 L 1766,1472"/>
 <path fill="none" stroke="rgb(179,179,179)" stroke-linejoin="round" d="M 1766,7345 L 1766,7195"/>
 <path fill="none" stroke="rgb(179,179,179)" stroke-linejoin="round" d="M 1766,7345 L 1766,7195"/>
 <path fill="none" stroke="rgb(179,179,179)" stroke-linejoin="round" d="M 2739,7345 L 2739,7195"/>
 <path fill="none" stroke="rgb(179,179,179)" stroke-linejoin="round" d="M 2739,7345 L 2739,7195"/>
 <path fill="none" stroke="rgb(179,179,179)" stroke-linejoin="round" d="M 3713,7345 L 3713,7195"/>
 <path fill="none" stroke="rgb(179,179,179)" stroke-linejoin="round" d="M 3713,7345 L 3713,7195"/>
 <path fill="none" stroke="rgb(179,179,179)" stroke-linejoin="round" d="M 4687,7345 L 4687,7195"/>
 <path fill="none" stroke="rgb(179,179,179)" stroke-linejoin="round" d="M 4687,7345 L 4687,7195"/>
 <path fill="none" stroke="rgb(179,179,179)" stroke-linejoin="round" d="M 5661,7345 L 5661,7195"/>
 <path fill="none" stroke="rgb(179,179,179)" stroke-linejoin="round" d="M 5661,7345 L 5661,7195"/>
 <path fill="none" stroke="rgb(179,179,179)" stroke-linejoin="round" d="M 6635,7345 L 6635,7195"/>
 <path fill="none" stroke="rgb(179,179,179)" stroke-linejoin="round" d="M 6635,7345 L 6635,7195"/>
 <path fill="none" stroke="rgb(179,179,179)" stroke-linejoin="round" d="M 7609,7345 L 7609,7195"/>
 <path fill="none" stroke="rgb(179,179,179)" stroke-linejoin="round" d="M 7609,7345 L 7609,7195"/>
 <path fill="none" stroke="rgb(179,179,179)" stroke-linejoin="round" d="M 8582,7345 L 8582,7195"/>
 <path fill="none" stroke="rgb(179,179,179)" stroke-linejoin="round" d="M 8582,7345 L 8582,7195"/>
 <path fill="none" stroke="rgb(179,179,179)" stroke-linejoin="round" d="M 9555,7345 L 9555,7195"/>
 <path fill="none" stroke="rgb(179,179,179)" stroke-linejoin="round" d="M 9555,7345 L 9555,7195"/>
 <path fill="none" stroke="rgb(179,179,179)" stroke-linejoin="round" d="M 10529,7345 L 10529,7195"/>
 <path fill="none" stroke="rgb(179,179,179)" stroke-linejoin="round" d="M 10529,7345 L 10529,7195"/>
 <path fill="none" stroke="rgb(179,179,179)" stroke-linejoin="round" d="M 11503,7345 L 11503,7195"/>
 <path fill="none" stroke="rgb(179,179,179)" stroke-linejoin="round" d="M 11503,7345 L 11503,7195"/>
 <path fill="none" stroke="rgb(179,179,179)" stroke-linejoin="round" d="M 12477,7345 L 12477,7195"/>
 <path fill="none" stroke="rgb(179,179,179)" stroke-linejoin="round" d="M 12477,7345 L 12477,7195"/>
 <path fill="none" stroke="rgb(179,179,179)" stroke-linejoin="round" d="M 13451,7345 L 13451,7195"/>
 <path fill="none" stroke="rgb(179,179,179)" stroke-linejoin="round" d="M 13451,7345 L 13451,7195"/>
 <path fill="none" stroke="rgb(179,179,179)" stroke-linejoin="round" d="M 14425,7345 L 14425,7195"/>
 <path fill="none" stroke="rgb(179,179,179)" stroke-linejoin="round" d="M 14425,7345 L 14425,7195"/>
 <path fill="none" stroke="rgb(179,179,179)" stroke-linejoin="round" d="M 15399,7345 L 15399,7195"/>
 <path fill="none" stroke="rgb(179,179,179)" stroke-linejoin="round" d="M 15399,7345 L 15399,7195"/>
 <path fill="none" stroke="rgb(179,179,179)" stroke-linejoin="round" d="M 1766,7195 L 15399,7195"/>
 <path fill="none" stroke="rgb(179,179,179)" stroke-linejoin="round" d="M 1616,7195 L 1766,7195"/>
 <path fill="none" stroke="rgb(179,179,179)" stroke-linejoin="round" d="M 1616,7195 L 1766,7195"/>
 <path fill="none" stroke="rgb(179,179,179)" stroke-linejoin="round" d="M 1616,6622 L 1766,6622"/>
 <path fill="none" stroke="rgb(179,179,179)" stroke-linejoin="round" d="M 1616,6622 L 1766,6622"/>
 <path fill="none" stroke="rgb(179,179,179)" stroke-linejoin="round" d="M 1616,6050 L 1766,6050"/>
 <path fill="none" stroke="rgb(179,179,179)" stroke-linejoin="round" d="M 1616,6050 L 1766,6050"/>
 <path fill="none" stroke="rgb(179,179,179)" stroke-linejoin="round" d="M 1616,5478 L 1766,5478"/>
 <path fill="none" stroke="rgb(179,179,179)" stroke-linejoin="round" d="M 1616,5478 L 1766,5478"/>
 <path fill="none" stroke="rgb(179,179,179)" stroke-linejoin="round" d="M 1616,4905 L 1766,4905"/>
 <path fill="none" stroke="rgb(179,179,179)" stroke-linejoin="round" d="M 1616,4905 L 1766,4905"/>
 <path fill="none" stroke="rgb(179,179,179)" stroke-linejoin="round" d="M 1616,4334 L 1766,4334"/>
 <path fill="none" stroke="rgb(179,179,179)" stroke-linejoin="round" d="M 1616,4334 L 1766,4334"/>
 <path fill="none" stroke="rgb(179,179,179)" stroke-linejoin="round" d="M 1616,3762 L 1766,3762"/>
 <path fill="none" stroke="rgb(179,179,179)" stroke-linejoin="round" d="M 1616,3762 L 1766,3762"/>
 <path fill="none" stroke="rgb(179,179,179)" stroke-linejoin="round" d="M 1616,3189 L 1766,3189"/>
 <path fill="none" stroke="rgb(179,179,179)" stroke-linejoin="round" d="M 1616,3189 L 1766,3189"/>
 <path fill="none" stroke="rgb(179,179,179)" stroke-linejoin="round" d="M 1616,2617 L 1766,2617"/>
 <path fill="none" stroke="rgb(179,179,179)" stroke-linejoin="round" d="M 1616,2617 L 1766,2617"/>
 <path fill="none" stroke="rgb(179,179,179)" stroke-linejoin="round" d="M 1616,2045 L 1766,2045"/>
 <path fill="none" stroke="rgb(179,179,179)" stroke-linejoin="round" d="M 1616,2045 L 1766,2045"/>
 <path fill="none" stroke="rgb(179,179,179)" stroke-linejoin="round" d="M 1616,1472 L 1766,1472"/>
 <path fill="none" stroke="rgb(179,179,179)" stroke-linejoin="round" d="M 1616,1472 L 1766,1472"/>
 <path fill="none" stroke="rgb(179,179,179)" stroke-linejoin="round" d="M 1766,7195 L 1766,1472"/>
 <path fill="none" stroke="rgb(0,69,134)" stroke-width="80" stroke-linejoin="round" d="M 1766,7155 L 2739,6959 3713,6723 4687,6292 5661,5310 6635,3898 7609,2485 8582,1661 9555,2485 10529,3898 11503,5310 12477,6292 13451,6723 14425,6959 15399,7155"/>
 <path fill="rgb(0,69,134)" stroke="none" d="M 1641,7155 L 1766,7280 1891,7155 1766,7030 1641,7155 Z"/>
 <path fill="none" stroke="rgb(0,69,134)" stroke-linejoin="round" d="M 1641,7155 L 1766,7280 1891,7155 1766,7030 1641,7155 Z"/>
 <path fill="rgb(0,69,134)" stroke="none" d="M 2614,6959 L 2739,7084 2864,6959 2739,6834 2614,6959 Z"/>
 <path fill="none" stroke="rgb(0,69,134)" stroke-linejoin="round" d="M 2614,6959 L 2739,7084 2864,6959 2739,6834 2614,6959 Z"/>
 <path fill="rgb(0,69,134)" stroke="none" d="M 3588,6723 L 3713,6848 3838,6723 3713,6598 3588,6723 Z"/>
 <path fill="none" stroke="rgb(0,69,134)" stroke-linejoin="round" d="M 3588,6723 L 3713,6848 3838,6723 3713,6598 3588,6723 Z"/>
 <path fill="rgb(0,69,134)" stroke="none" d="M 4562,6292 L 4687,6417 4812,6292 4687,6167 4562,6292 Z"/>
 <path fill="none" stroke="rgb(0,69,134)" stroke-linejoin="round" d="M 4562,6292 L 4687,6417 4812,6292 4687,6167 4562,6292 Z"/>
 <path fill="rgb(0,69,134)" stroke="none" d="M 5536,5310 L 5661,5435 5786,5310 5661,5185 5536,5310 Z"/>
 <path fill="none" stroke="rgb(0,69,134)" stroke-linejoin="round" d="M 5536,5310 L 5661,5435 5786,5310 5661,5185 5536,5310 Z"/>
 <path fill="rgb(0,69,134)" stroke="none" d="M 6510,3898 L 6635,4023 6760,3898 6635,3773 6510,3898 Z"/>
 <path fill="none" stroke="rgb(0,69,134)" stroke-linejoin="round" d="M 6510,3898 L 6635,4023 6760,3898 6635,3773 6510,3898 Z"/>
 <path fill="rgb(0,69,134)" stroke="none" d="M 7484,2485 L 7609,2610 7734,2485 7609,2360 7484,2485 Z"/>
 <path fill="none" stroke="rgb(0,69,134)" stroke-linejoin="round" d="M 7484,2485 L 7609,2610 7734,2485 7609,2360 7484,2485 Z"/>
 <path fill="rgb(0,69,134)" stroke="none" d="M 8457,1661 L 8582,1786 8707,1661 8582,1536 8457,1661 Z"/>
 <path fill="none" stroke="rgb(0,69,134)" stroke-linejoin="round" d="M 8457,1661 L 8582,1786 8707,1661 8582,1536 8457,1661 Z"/>
 <path fill="rgb(0,69,134)" stroke="none" d="M 9430,2485 L 9555,2610 9680,2485 9555,2360 9430,2485 Z"/>
 <path fill="none" stroke="rgb(0,69,134)" stroke-linejoin="round" d="M 9430,2485 L 9555,2610 9680,2485 9555,2360 9430,2485 Z"/>
 <path fill="rgb(0,69,134)" stroke="none" d="M 10404,3898 L 10529,4023 10654,3898 10529,3773 10404,3898 Z"/>
 <path fill="none" stroke="rgb(0,69,134)" stroke-linejoin="round" d="M 10404,3898 L 10529,4023 10654,3898 10529,3773 10404,3898 Z"/>
 <path fill="rgb(0,69,134)" stroke="none" d="M 11378,5310 L 11503,5435 11628,5310 11503,5185 11378,5310 Z"/>
 <path fill="none" stroke="rgb(0,69,134)" stroke-linejoin="round" d="M 11378,5310 L 11503,5435 11628,5310 11503,5185 11378,5310 Z"/>
 <path fill="rgb(0,69,134)" stroke="none" d="M 12352,6292 L 12477,6417 12602,6292 12477,6167 12352,6292 Z"/>
 <path fill="none" stroke="rgb(0,69,134)" stroke-linejoin="round" d="M 12352,6292 L 12477,6417 12602,6292 12477,6167 12352,6292 Z"/>
 <path fill="rgb(0,69,134)" stroke="none" d="M 13326,6723 L 13451,6848 13576,6723 13451,6598 13326,6723 Z"/>
 <path fill="none" stroke="rgb(0,69,134)" stroke-linejoin="round" d="M 13326,6723 L 13451,6848 13576,6723 13451,6598 13326,6723 Z"/>
 <path fill="rgb(0,69,134)" stroke="none" d="M 14300,6959 L 14425,7084 14550,6959 14425,6834 14300,6959 Z"/>
 <path fill="none" stroke="rgb(0,69,134)" stroke-linejoin="round" d="M 14300,6959 L 14425,7084 14550,6959 14425,6834 14300,6959 Z"/>
 <path fill="rgb(0,69,134)" stroke="none" d="M 15274,7155 L 15399,7280 15524,7155 15399,7030 15274,7155 Z"/>
 <path fill="none" stroke="rgb(0,69,134)" stroke-linejoin="round" d="M 15274,7155 L 15399,7280 15524,7155 15399,7030 15274,7155 Z"/>
 <text class="TextShape"><tspan class="TextParagraph" font-family="Liberation Sans, sans-serif" font-size="353px" font-weight="400"><tspan class="TextPosition" x="1620" y="7763"><tspan fill="rgb(0,0,0)" stroke="none">-8</tspan></tspan></tspan></text>
 <text class="TextShape"><tspan class="TextParagraph" font-family="Liberation Sans, sans-serif" font-size="353px" font-weight="400"><tspan class="TextPosition" x="2593" y="7763"><tspan fill="rgb(0,0,0)" stroke="none">-6</tspan></tspan></tspan></text>
 <text class="TextShape"><tspan class="TextParagraph" font-family="Liberation Sans, sans-serif" font-size="353px" font-weight="400"><tspan class="TextPosition" x="3567" y="7763"><tspan fill="rgb(0,0,0)" stroke="none">-5</tspan></tspan></tspan></text>
 <text class="TextShape"><tspan class="TextParagraph" font-family="Liberation Sans, sans-serif" font-size="353px" font-weight="400"><tspan class="TextPosition" x="4541" y="7763"><tspan fill="rgb(0,0,0)" stroke="none">-4</tspan></tspan></tspan></text>
 <text class="TextShape"><tspan class="TextParagraph" font-family="Liberation Sans, sans-serif" font-size="353px" font-weight="400"><tspan class="TextPosition" x="5515" y="7763"><tspan fill="rgb(0,0,0)" stroke="none">-3</tspan></tspan></tspan></text>
 <text class="TextShape"><tspan class="TextParagraph" font-family="Liberation Sans, sans-serif" font-size="353px" font-weight="400"><tspan class="TextPosition" x="6489" y="7763"><tspan fill="rgb(0,0,0)" stroke="none">-2</tspan></tspan></tspan></text>
 <text class="TextShape"><tspan class="TextParagraph" font-family="Liberation Sans, sans-serif" font-size="353px" font-weight="400"><tspan class="TextPosition" x="7463" y="7763"><tspan fill="rgb(0,0,0)" stroke="none">-1</tspan></tspan></tspan></text>
 <text class="TextShape"><tspan class="TextParagraph" font-family="Liberation Sans, sans-serif" font-size="353px" font-weight="400"><tspan class="TextPosition" x="8490" y="7763"><tspan fill="rgb(0,0,0)" stroke="none">0</tspan></tspan></tspan></text>
 <text class="TextShape"><tspan class="TextParagraph" font-family="Liberation Sans, sans-serif" font-size="353px" font-weight="400"><tspan class="TextPosition" x="9463" y="7763"><tspan fill="rgb(0,0,0)" stroke="none">1</tspan></tspan></tspan></text>
 <text class="TextShape"><tspan class="TextParagraph" font-family="Liberation Sans, sans-serif" font-size="353px" font-weight="400"><tspan class="TextPosition" x="10437" y="7763"><tspan fill="rgb(0,0,0)" stroke="none">2</tspan></tspan></tspan></text>
 <text class="TextShape"><tspan class="TextParagraph" font-family="Liberation Sans, sans-serif" font-size="353px" font-weight="400"><tspan class="TextPosition" x="11411" y="7763"><tspan fill="rgb(0,0,0)" stroke="none">3</tspan></tspan></tspan></text>
 <text class="TextShape"><tspan class="TextParagraph" font-family="Liberation Sans, sans-serif" font-size="353px" font-weight="400"><tspan class="TextPosition" x="12385" y="7763"><tspan fill="rgb(0,0,0)" stroke="none">4</tspan></tspan></tspan></text>
 <text class="TextShape"><tspan class="TextParagraph" font-family="Liberation Sans, sans-serif" font-size="353px" font-weight="400"><tspan class="TextPosition" x="13359" y="7763"><tspan fill="rgb(0,0,0)" stroke="none">5</tspan></tspan></tspan></text>
 <text class="TextShape"><tspan class="TextParagraph" font-family="Liberation Sans, sans-serif" font-size="353px" font-weight="400"><tspan class="TextPosition" x="14333" y="7763"><tspan fill="rgb(0,0,0)" stroke="none">6</tspan></tspan></tspan></text>
 <text class="TextShape"><tspan class="TextParagraph" font-family="Liberation Sans, sans-serif" font-size="353px" font-weight="400"><tspan class="TextPosition" x="15307" y="7763"><tspan fill="rgb(0,0,0)" stroke="none">8</tspan></tspan></tspan></text>
 <text class="TextShape"><tspan class="TextParagraph" font-family="Liberation Sans, sans-serif" font-size="353px" font-weight="400"><tspan class="TextPosition" x="1331" y="7316"><tspan fill="rgb(0,0,0)" stroke="none">0</tspan></tspan></tspan></text>
 <text class="TextShape"><tspan class="TextParagraph" font-family="Liberation Sans, sans-serif" font-size="353px" font-weight="400"><tspan class="TextPosition" x="1331" y="6743"><tspan fill="rgb(0,0,0)" stroke="none">2</tspan></tspan></tspan></text>
 <text class="TextShape"><tspan class="TextParagraph" font-family="Liberation Sans, sans-serif" font-size="353px" font-weight="400"><tspan class="TextPosition" x="1331" y="6171"><tspan fill="rgb(0,0,0)" stroke="none">4</tspan></tspan></tspan></text>
 <text class="TextShape"><tspan class="TextParagraph" font-family="Liberation Sans, sans-serif" font-size="353px" font-weight="400"><tspan class="TextPosition" x="1331" y="5599"><tspan fill="rgb(0,0,0)" stroke="none">6</tspan></tspan></tspan></text>
 <text class="TextShape"><tspan class="TextParagraph" font-family="Liberation Sans, sans-serif" font-size="353px" font-weight="400"><tspan class="TextPosition" x="1331" y="5026"><tspan fill="rgb(0,0,0)" stroke="none">8</tspan></tspan></tspan></text>
 <text class="TextShape"><tspan class="TextParagraph" font-family="Liberation Sans, sans-serif" font-size="353px" font-weight="400"><tspan class="TextPosition" x="1146" y="4454"><tspan fill="rgb(0,0,0)" stroke="none">10</tspan></tspan></tspan></text>
 <text class="TextShape"><tspan class="TextParagraph" font-family="Liberation Sans, sans-serif" font-size="353px" font-weight="400"><tspan class="TextPosition" x="1146" y="3882"><tspan fill="rgb(0,0,0)" stroke="none">12</tspan></tspan></tspan></text>
 <text class="TextShape"><tspan class="TextParagraph" font-family="Liberation Sans, sans-serif" font-size="353px" font-weight="400"><tspan class="TextPosition" x="1146" y="3309"><tspan fill="rgb(0,0,0)" stroke="none">14</tspan></tspan></tspan></text>
 <text class="TextShape"><tspan class="TextParagraph" font-family="Liberation Sans, sans-serif" font-size="353px" font-weight="400"><tspan class="TextPosition" x="1146" y="2737"><tspan fill="rgb(0,0,0)" stroke="none">16</tspan></tspan></tspan></text>
 <text class="TextShape"><tspan class="TextParagraph" font-family="Liberation Sans, sans-serif" font-size="353px" font-weight="400"><tspan class="TextPosition" x="1146" y="2165"><tspan fill="rgb(0,0,0)" stroke="none">18</tspan></tspan></tspan></text>
 <text class="TextShape"><tspan class="TextParagraph" font-family="Liberation Sans, sans-serif" font-size="353px" font-weight="400"><tspan class="TextPosition" x="1146" y="1592"><tspan fill="rgb(0,0,0)" stroke="none">20</tspan></tspan></tspan></text>
 <text class="TextShape"><tspan class="TextParagraph" font-family="Liberation Sans, sans-serif" font-size="459px" font-weight="400"><tspan class="TextPosition" x="6544" y="851"><tspan fill="rgb(0,0,0)" stroke="none">Contested Roll</tspan></tspan></tspan></text>
 <text class="TextShape"><tspan class="TextParagraph" font-family="Liberation Sans, sans-serif" font-size="318px" font-weight="400"><tspan class="TextPosition" x="7392" y="8410"><tspan fill="rgb(0,0,0)" stroke="none">Dice Difference</tspan></tspan></tspan></text>
 <text class="TextShape" transform="translate(837,5855) rotate(-90) translate(-837,-5855)"><tspan class="TextParagraph" font-family="Liberation Sans, sans-serif" font-size="318px" font-weight="400"><tspan class="TextPosition" x="837" y="5855"><tspan fill="rgb(0,0,0)" stroke="none">Chance of Rolling</tspan></tspan></tspan></text>
</svg>