<?xml version="1.0" encoding="UTF-8"?>
<!DOCTYPE svg PUBLIC "-//W3C//DTD SVG 1.1//EN" "http://www.w3.org/Graphics/SVG/1.1/DTD/svg11.dtd">
<svg width="160mm" height="90mm" viewBox="0 0 16000 9000" version="1.1" xmlns="http://www.w3.org/2000/svg" stroke-width="28.222" stroke-linejoin="round" xml:space="preserve">
 <path fill="rgb(255,255,255)" stroke="none" d="M 7999,9004 L 0,9004 0,0 15997,0 15997,9004 7999,9004 Z"/>
 <path fill="none" stroke="rgb(179,179,179)" stroke-linejoin="round" d="M 8674,7196 L 1951,7196 1951,1474 15398,1474 15398,7196 8674,7196 Z"/>
 <path fill="none" stroke="rgb(179,179,179)" stroke-linejoin="round" d="M 1951,1473 L 1951,7195"/>
 <path fill="none" stroke="rgb(179,179,179)" stroke-linejoin="round" d="M 2742,1473 L 2742,7195"/>
 <path fill="none" stroke="rgb(179,179,179)" stroke-linejoin="round" d="M 3533,1473 L 3533,7195"/>
 <path fill="none" stroke="rgb(179,179,179)" stroke-linejoin="round" d="M 4324,1473 L 4324,7195"/>
 <path fill="none" stroke="rgb(179,179,179)" stroke-linejoin="round" d="M 5115,1473 L 5115,7195"/>
 <path fill="none" stroke="rgb(179,179,179)" stroke-linejoin="round" d="M 5906,1473 L 5906,7195"/>
 <path fill="none" stroke="rgb(179,179,179)" stroke-linejoin="round" d="M 6697,1473 L 6697,7195"/>
 <path fill="none" stroke="rgb(179,179,179)" stroke-linejoin="round" d="M 7488,1473 L 7488,7195"/>
 <path fill="none" stroke="rgb(179,179,179)" stroke-linejoin="round" d="M 8278,1473 L 8278,7195"/>
 <path fill="none" stroke="rgb(179,179,179)" stroke-linejoin="round" d="M 9069,1473 L 9069,7195"/>
 <path fill="none" stroke="rgb(179,179,179)" stroke-linejoin="round" d="M 9860,1473 L 9860,7195"/>
 <path fill="none" stroke="rgb(179,179,179)" stroke-linejoin="round" d="M 10651,1473 L 10651,7195"/>
 <path fill="none" stroke="rgb(179,179,179)" stroke-linejoin="round" d="M 11442,1473 L 11442,7195"/>
 <path fill="none" stroke="rgb(179,179,179)" stroke-linejoin="round" d="M 12233,1473 L 12233,7195"/>
 <path fill="none" stroke="rgb(179,179,179)" stroke-linejoin="round" d="M 13024,1473 L 13024,7195"/>
 <path fill="none" stroke="rgb(179,179,179)" stroke-linejoin="round" d="M 13815,1473 L 13815,7195"/>
 <path fill="none" stroke="rgb(179,179,179)" stroke-linejoin="round" d="M 14606,1473 L 14606,7195"/>
 <path fill="none" stroke="rgb(179,179,179)" stroke-linejoin="round" d="M 15398,1473 L 15398,7195"/>
 <path fill="none" stroke="rgb(179,179,179)" stroke-linejoin="round" d="M 15398,7195 L 1951,7195"/>
 <path fill="none" stroke="rgb(179,179,179)" stroke-linejoin="round" d="M 15398,6622 L 1951,6622"/>
 <path fill="none" stroke="rgb(179,179,179)" stroke-linejoin="round" d="M 15398,6050 L 1951,6050"/>
 <path fill="none" stroke="rgb(179,179,179)" stroke-linejoin="round" d="M 15398,5478 L 1951,5478"/>
 <path fill="none" stroke="rgb(179,179,179)" stroke-linejoin="round" d="M 15398,4905 L 1951,4905"/>
 <path fill="none" stroke="rgb(179,179,179)" stroke-linejoin="round" d="M 15398,4334 L 1951,4334"/>
 <path fill="none" stroke="rgb(179,179,179)" stroke-linejoin="round" d="M 15398,3762 L 1951,3762"/>
 <path fill="none" stroke="rgb(179,179,179)" stroke-linejoin="round" d="M 15398,3189 L 1951,3189"/>
 <path fill="none" stroke="rgb(179,179,179)" stroke-linejoin="round" d="M 15398,2617 L 1951,2617"/>
 <path fill="none" stroke="rgb(179,179,179)" stroke-linejoin="round" d="M 15398,2045 L 1951,2045"/>
 <path fill="none" stroke="rgb(179,179,179)" stroke-linejoin="round" d="M 15398,1473 L 1951,1473"/>
 <path fill="none" stroke="rgb(179,179,179)" stroke-linejoin="round" d="M 1951,7345 L 1951,7195"/>
 <path fill="none" stroke="rgb(179,179,179)" stroke-linejoin="round" d="M 1951,7345 L 1951,7195"/>
 <path fill="none" stroke="rgb(179,179,179)" stroke-linejoin="round" d="M 2742,7345 L 2742,7195"/>
 <path fill="none" stroke="rgb(179,179,179)" stroke-linejoin="round" d="M 2742,7345 L 2742,7195"/>
 <path fill="none" stroke="rgb(179,179,179)" stroke-linejoin="round" d="M 3533,7345 L 3533,7195"/>
 <path fill="none" stroke="rgb(179,179,179)" stroke-linejoin="round" d="M 3533,7345 L 3533,7195"/>
 <path fill="none" stroke="rgb(179,179,179)" stroke-linejoin="round" d="M 4324,7345 L 4324,7195"/>
 <path fill="none" stroke="rgb(179,179,179)" stroke-linejoin="round" d="M 4324,7345 L 4324,7195"/>
 <path fill="none" stroke="rgb(179,179,179)" stroke-linejoin="round" d="M 5115,7345 L 5115,7195"/>
 <path fill="none" stroke="rgb(179,179,179)" stroke-linejoin="round" d="M 5115,7345 L 5115,7195"/>
 <path fill="none" stroke="rgb(179,179,179)" stroke-linejoin="round" d="M 5906,7345 L 5906,7195"/>
 <path fill="none" stroke="rgb(179,179,179)" stroke-linejoin="round" d="M 5906,7345 L 5906,7195"/>
 <path fill="none" stroke="rgb(179,179,179)" stroke-linejoin="round" d="M 6697,7345 L 6697,7195"/>
 <path fill="none" stroke="rgb(179,179,179)" stroke-linejoin="round" d="M 6697,7345 L 6697,7195"/>
 <path fill="none" stroke="rgb(179,179,179)" stroke-linejoin="round" d="M 7488,7345 L 7488,7195"/>
 <path fill="none" stroke="rgb(179,179,179)" stroke-linejoin="round" d="M 7488,7345 L 7488,7195"/>
 <path fill="none" stroke="rgb(179,179,179)" stroke-linejoin="round" d="M 8278,7345 L 8278,7195"/>
 <path fill="none" stroke="rgb(179,179,179)" stroke-linejoin="round" d="M 8278,7345 L 8278,7195"/>
 <path fill="none" stroke="rgb(179,179,179)" stroke-linejoin="round" d="M 9069,7345 L 9069,7195"/>
 <path fill="none" stroke="rgb(179,179,179)" stroke-linejoin="round" d="M 9069,7345 L 9069,7195"/>
 <path fill="none" stroke="rgb(179,179,179)" stroke-linejoin="round" d="M 9860,7345 L 9860,7195"/>
 <path fill="none" stroke="rgb(179,179,179)" stroke-linejoin="round" d="M 9860,7345 L 9860,7195"/>
 <path fill="none" stroke="rgb(179,179,179)" stroke-linejoin="round" d="M 10651,7345 L 10651,7195"/>
 <path fill="none" stroke="rgb(179,179,179)" stroke-linejoin="round" d="M 10651,7345 L 10651,7195"/>
 <path fill="none" stroke="rgb(179,179,179)" stroke-linejoin="round" d="M 11442,7345 L 11442,7195"/>
 <path fill="none" stroke="rgb(179,179,179)" stroke-linejoin="round" d="M 11442,7345 L 11442,7195"/>
 <path fill="none" stroke="rgb(179,179,179)" stroke-linejoin="round" d="M 12233,7345 L 12233,7195"/>
 <path fill="none" stroke="rgb(179,179,179)" stroke-linejoin="round" d="M 12233,7345 L 12233,7195"/>
 <path fill="none" stroke="rgb(179,179,179)" stroke-linejoin="round" d="M 13024,7345 L 13024,7195"/>
 <path fill="none" stroke="rgb(179,179,179)" stroke-linejoin="round" d="M 13024,7345 L 13024,7195"/>
 <path fill="none" stroke="rgb(179,179,179)" stroke-linejoin="round" d="M 13815,7345 L 13815,7195"/>
 <path fill="none" stroke="rgb(179,179,179)" stroke-linejoin="round" d="M 13815,7345 L 13815,7195"/>
 <path fill="none" stroke="rgb(179,179,179)" stroke-linejoin="round" d="M 14606,7345 L 14606,7195"/>
 <path fill="none" stroke="rgb(179,179,179)" stroke-linejoin="round" d="M 14606,7345 L 14606,7195"/>
 <path fill="none" stroke="rgb(179,179,179)" stroke-linejoin="round" d="M 15398,7345 L 15398,7195"/>
 <path fill="none" stroke="rgb(179,179,179)" stroke-linejoin="round" d="M 15398,7345 L 15398,7195"/>
 <path fill="none" stroke="rgb(179,179,179)" stroke-linejoin="round" d="M 1951,7195 L 15398,7195"/>
 <path fill="none" stroke="rgb(179,179,179)" stroke-linejoin="round" d="M 1801,7195 L 1951,7195"/>
 <path fill="none" stroke="rgb(179,179,179)" stroke-linejoin="round" d="M 1801,7195 L 1951,7195"/>
 <path fill="none" stroke="rgb(179,179,179)" stroke-linejoin="round" d="M 1801,6622 L 1951,6622"/>
 <path fill="none" stroke="rgb(179,179,179)" stroke-linejoin="round" d="M 1801,6622 L 1951,6622"/>
 <path fill="none" stroke="rgb(179,179,179)" stroke-linejoin="round" d="M 1801,6050 L 1951,6050"/>
 <path fill="none" stroke="rgb(179,179,179)" stroke-linejoin="round" d="M 1801,6050 L 1951,6050"/>
 <path fill="none" stroke="rgb(179,179,179)" stroke-linejoin="round" d="M 1801,5478 L 1951,5478"/>
 <path fill="none" stroke="rgb(179,179,179)" stroke-linejoin="round" d="M 1801,5478 L 1951,5478"/>
 <path fill="none" stroke="rgb(179,179,179)" stroke-linejoin="round" d="M 1801,4905 L 1951,4905"/>
 <path fill="none" stroke="rgb(179,179,179)" stroke-linejoin="round" d="M 1801,4905 L 1951,4905"/>
 <path fill="none" stroke="rgb(179,179,179)" stroke-linejoin="round" d="M 1801,4334 L 1951,4334"/>
 <path fill="none" stroke="rgb(179,179,179)" stroke-linejoin="round" d="M 1801,4334 L 1951,4334"/>
 <path fill="none" stroke="rgb(179,179,179)" stroke-linejoin="round" d="M 1801,3762 L 1951,3762"/>
 <path fill="none" stroke="rgb(179,179,179)" stroke-linejoin="round" d="M 1801,3762 L 1951,3762"/>
 <path fill="none" stroke="rgb(179,179,179)" stroke-linejoin="round" d="M 1801,3189 L 1951,3189"/>
 <path fill="none" stroke="rgb(179,179,179)" stroke-linejoin="round" d="M 1801,3189 L 1951,3189"/>
 <path fill="none" stroke="rgb(179,179,179)" stroke-linejoin="round" d="M 1801,2617 L 1951,2617"/>
 <path fill="none" stroke="rgb(179,179,179)" stroke-linejoin="round" d="M 1801,2617 L 1951,2617"/>
 <path fill="none" stroke="rgb(179,179,179)" stroke-linejoin="round" d="M 1801,2045 L 1951,2045"/>
 <path fill="none" stroke="rgb(179,179,179)" stroke-linejoin="round" d="M 1801,2045 L 1951,2045"/>
 <path fill="none" stroke="rgb(179,179,179)" stroke-linejoin="round" d="M 1801,1473 L 1951,1473"/>
 <path fill="none" stroke="rgb(179,179,179)" stroke-linejoin="round" d="M 1801,1473 L 1951,1473"/>
 <path fill="none" stroke="rgb(179,179,179)" stroke-linejoin="round" d="M 1951,7195 L 1951,1473"/>
 <path fill="none" stroke="rgb(0,69,134)" stroke-width="80" stroke-linejoin="round" d="M 1951,1473 L 2742,1480 3533,1480 4324,1527 5115,1622 5906,1802 6697,2179 7488,2838 8278,3781 9069,4886 9860,5829 10651,6488 11442,6865 12233,7045 13024,7140 13815,7140 14606,7187 15398,7195"/>
 <path fill="rgb(0,69,134)" stroke="none" d="M 1826,1473 L 1951,1598 2076,1473 1951,1348 1826,1473 Z"/>
 <path fill="none" stroke="rgb(0,69,134)" stroke-linejoin="round" d="M 1826,1473 L 1951,1598 2076,1473 1951,1348 1826,1473 Z"/>
 <path fill="rgb(0,69,134)" stroke="none" d="M 2617,1480 L 2742,1605 2867,1480 2742,1355 2617,1480 Z"/>
 <path fill="none" stroke="rgb(0,69,134)" stroke-linejoin="round" d="M 2617,1480 L 2742,1605 2867,1480 2742,1355 2617,1480 Z"/>
 <path fill="rgb(0,69,134)" stroke="none" d="M 3408,1480 L 3533,1605 3658,1480 3533,1355 3408,1480 Z"/>
 <path fill="none" stroke="rgb(0,69,134)" stroke-linejoin="round" d="M 3408,1480 L 3533,1605 3658,1480 3533,1355 3408,1480 Z"/>
 <path fill="rgb(0,69,134)" stroke="none" d="M 4199,1527 L 4324,1652 4449,1527 4324,1402 4199,1527 Z"/>
 <path fill="none" stroke="rgb(0,69,134)" stroke-linejoin="round" d="M 4199,1527 L 4324,1652 4449,1527 4324,1402 4199,1527 Z"/>
 <path fill="rgb(0,69,134)" stroke="none" d="M 4990,1622 L 5115,1747 5240,1622 5115,1497 4990,1622 Z"/>
 <path fill="none" stroke="rgb(0,69,134)" stroke-linejoin="round" d="M 4990,1622 L 5115,1747 5240,1622 5115,1497 4990,1622 Z"/>
 <path fill="rgb(0,69,134)" stroke="none" d="M 5781,1802 L 5906,1927 6031,1802 5906,1677 5781,1802 Z"/>
 <path fill="none" stroke="rgb(0,69,134)" stroke-linejoin="round" d="M 5781,1802 L 5906,1927 6031,1802 5906,1677 5781,1802 Z"/>
 <path fill="rgb(0,69,134)" stroke="none" d="M 6572,2179 L 6697,2304 6822,2179 6697,2054 6572,2179 Z"/>
 <path fill="none" stroke="rgb(0,69,134)" stroke-linejoin="round" d="M 6572,2179 L 6697,2304 6822,2179 6697,2054 6572,2179 Z"/>
 <path fill="rgb(0,69,134)" stroke="none" d="M 7363,2838 L 7488,2963 7613,2838 7488,2713 7363,2838 Z"/>
 <path fill="none" stroke="rgb(0,69,134)" stroke-linejoin="round" d="M 7363,2838 L 7488,2963 7613,2838 7488,2713 7363,2838 Z"/>
 <path fill="rgb(0,69,134)" stroke="none" d="M 8153,3781 L 8278,3906 8403,3781 8278,3656 8153,3781 Z"/>
 <path fill="none" stroke="rgb(0,69,134)" stroke-linejoin="round" d="M 8153,3781 L 8278,3906 8403,3781 8278,3656 8153,3781 Z"/>
 <path fill="rgb(0,69,134)" stroke="none" d="M 8944,4886 L 9069,5011 9194,4886 9069,4761 8944,4886 Z"/>
 <path fill="none" stroke="rgb(0,69,134)" stroke-linejoin="round" d="M 8944,4886 L 9069,5011 9194,4886 9069,4761 8944,4886 Z"/>
 <path fill="rgb(0,69,134)" stroke="none" d="M 9735,5829 L 9860,5954 9985,5829 9860,5704 9735,5829 Z"/>
 <path fill="none" stroke="rgb(0,69,134)" stroke-linejoin="round" d="M 9735,5829 L 9860,5954 9985,5829 9860,5704 9735,5829 Z"/>
 <path fill="rgb(0,69,134)" stroke="none" d="M 10526,6488 L 10651,6613 10776,6488 10651,6363 10526,6488 Z"/>
 <path fill="none" stroke="rgb(0,69,134)" stroke-linejoin="round" d="M 10526,6488 L 10651,6613 10776,6488 10651,6363 10526,6488 Z"/>
 <path fill="rgb(0,69,134)" stroke="none" d="M 11317,6865 L 11442,6990 11567,6865 11442,6740 11317,6865 Z"/>
 <path fill="none" stroke="rgb(0,69,134)" stroke-linejoin="round" d="M 11317,6865 L 11442,6990 11567,6865 11442,6740 11317,6865 Z"/>
 <path fill="rgb(0,69,134)" stroke="none" d="M 12108,7045 L 12233,7170 12358,7045 12233,6920 12108,7045 Z"/>
 <path fill="none" stroke="rgb(0,69,134)" stroke-linejoin="round" d="M 12108,7045 L 12233,7170 12358,7045 12233,6920 12108,7045 Z"/>
 <path fill="rgb(0,69,134)" stroke="none" d="M 12899,7140 L 13024,7265 13149,7140 13024,7015 12899,7140 Z"/>
 <path fill="none" stroke="rgb(0,69,134)" stroke-linejoin="round" d="M 12899,7140 L 13024,7265 13149,7140 13024,7015 12899,7140 Z"/>
 <path fill="rgb(0,69,134)" stroke="none" d="M 13690,7140 L 13815,7265 13940,7140 13815,7015 13690,7140 Z"/>
 <path fill="none" stroke="rgb(0,69,134)" stroke-linejoin="round" d="M 13690,7140 L 13815,7265 13940,7140 13815,7015 13690,7140 Z"/>
 <path fill="rgb(0,69,134)" stroke="none" d="M 14481,7187 L 14606,7312 14731,7187 14606,7062 14481,7187 Z"/>
 <path fill="none" stroke="rgb(0,69,134)" stroke-linejoin="round" d="M 14481,7187 L 14606,7312 14731,7187 14606,7062 14481,7187 Z"/>
 <path fill="rgb(0,69,134)" stroke="none" d="M 15273,7195 L 15398,7320 15523,7195 15398,7070 15273,7195 Z"/>
 <path fill="none" stroke="rgb(0,69,134)" stroke-linejoin="round" d="M 15273,7195 L 15398,7320 15523,7195 15398,7070 15273,7195 Z"/>
 <text class="TextShape"><tspan class="TextParagraph" font-family="Liberation Sans, sans-serif" font-size="353px" font-weight="400"><tspan class="TextPosition" x="1805" y="7763"><tspan fill="rgb(0,0,0)" stroke="none">-8</tspan></tspan></tspan></text>
 <text class="TextShape"><tspan class="TextParagraph" font-family="Liberation Sans, sans-serif" font-size="353px" font-weight="400"><tspan class="TextPosition" x="2596" y="7763"><tspan fill="rgb(0,0,0)" stroke="none">-7</tspan></tspan></tspan></text>
 <text class="TextShape"><tspan class="TextParagraph" font-family="Liberation Sans, sans-serif" font-size="353px" font-weight="400"><tspan class="TextPosition" x="3387" y="7763"><tspan fill="rgb(0,0,0)" stroke="none">-6</tspan></tspan></tspan></text>
 <text class="TextShape"><tspan class="TextParagraph" font-family="Liberation Sans, sans-serif" font-size="353px" font-weight="400"><tspan class="TextPosition" x="4178" y="7763"><tspan fill="rgb(0,0,0)" stroke="none">-5</tspan></tspan></tspan></text>
 <text class="TextShape"><tspan class="TextParagraph" font-family="Liberation Sans, sans-serif" font-size="353px" font-weight="400"><tspan class="TextPosition" x="4969" y="7763"><tspan fill="rgb(0,0,0)" stroke="none">-4</tspan></tspan></tspan></text>
 <text class="TextShape"><tspan class="TextParagraph" font-family="Liberation Sans, sans-serif" font-size="353px" font-weight="400"><tspan class="TextPosition" x="5760" y="7763"><tspan fill="rgb(0,0,0)" stroke="none">-3</tspan></tspan></tspan></text>
 <text class="TextShape"><tspan class="TextParagraph" font-family="Liberation Sans, sans-serif" font-size="353px" font-weight="400"><tspan class="TextPosition" x="6551" y="7763"><tspan fill="rgb(0,0,0)" stroke="none">-2</tspan></tspan></tspan></text>
 <text class="TextShape"><tspan class="TextParagraph" font-family="Liberation Sans, sans-serif" font-size="353px" font-weight="400"><tspan class="TextPosition" x="7342" y="7763"><tspan fill="rgb(0,0,0)" stroke="none">-1</tspan></tspan></tspan></text>
 <text class="TextShape"><tspan class="TextParagraph" font-family="Liberation Sans, sans-serif" font-size="353px" font-weight="400"><tspan class="TextPosition" x="8186" y="7763"><tspan fill="rgb(0,0,0)" stroke="none">0</tspan></tspan></tspan></text>
 <text class="TextShape"><tspan class="TextParagraph" font-family="Liberation Sans, sans-serif" font-size="353px" font-weight="400"><tspan class="TextPosition" x="8977" y="7763"><tspan fill="rgb(0,0,0)" stroke="none">1</tspan></tspan></tspan></text>
 <text class="TextShape"><tspan class="TextParagraph" font-family="Liberation Sans, sans-serif" font-size="353px" font-weight="400"><tspan class="TextPosition" x="9768" y="7763"><tspan fill="rgb(0,0,0)" stroke="none">2</tspan></tspan></tspan></text>
 <text class="TextShape"><tspan class="TextParagraph" font-family="Liberation Sans, sans-serif" font-size="353px" font-weight="400"><tspan class="TextPosition" x="10559" y="7763"><tspan fill="rgb(0,0,0)" stroke="none">3</tspan></tspan></tspan></text>
 <text class="TextShape"><tspan class="TextParagraph" font-family="Liberation Sans, sans-serif" font-size="353px" font-weight="400"><tspan class="TextPosition" x="11350" y="7763"><tspan fill="rgb(0,0,0)" stroke="none">4</tspan></tspan></tspan></text>
 <text class="TextShape"><tspan class="TextParagraph" font-family="Liberation Sans, sans-serif" font-size="353px" font-weight="400"><tspan class="TextPosition" x="12141" y="7763"><tspan fill="rgb(0,0,0)" stroke="none">5</tspan></tspan></tspan></text>
 <text class="TextShape"><tspan class="TextParagraph" font-family="Liberation Sans, sans-serif" font-size="353px" font-weight="400"><tspan class="TextPosition" x="12932" y="7763"><tspan fill="rgb(0,0,0)" stroke="none">6</tspan></tspan></tspan></text>
 <text class="TextShape"><tspan class="TextParagraph" font-family="Liberation Sans, sans-serif" font-size="353px" font-weight="400"><tspan class="TextPosition" x="13723" y="7763"><tspan fill="rgb(0,0,0)" stroke="none">7</tspan></tspan></tspan></text>
 <text class="TextShape"><tspan class="TextParagraph" font-family="Liberation Sans, sans-serif" font-size="353px" font-weight="400"><tspan class="TextPosition" x="14514" y="7763"><tspan fill="rgb(0,0,0)" stroke="none">8</tspan></tspan></tspan></text>
 <text class="TextShape"><tspan class="TextParagraph" font-family="Liberation Sans, sans-serif" font-size="353px" font-weight="400"><tspan class="TextPosition" x="15306" y="7763"><tspan fill="rgb(0,0,0)" stroke="none">9</tspan></tspan></tspan></text>
 <text class="TextShape"><tspan class="TextParagraph" font-family="Liberation Sans, sans-serif" font-size="353px" font-weight="400"><tspan class="TextPosition" x="1516" y="7316"><tspan fill="rgb(0,0,0)" stroke="none">0</tspan></tspan></tspan></text>
 <text class="TextShape"><tspan class="TextParagraph" font-family="Liberation Sans, sans-serif" font-size="353px" font-weight="400"><tspan class="TextPosition" x="1331" y="6743"><tspan fill="rgb(0,0,0)" stroke="none">10</tspan></tspan></tspan></text>
 <text class="TextShape"><tspan class="TextParagraph" font-family="Liberation Sans, sans-serif" font-size="353px" font-weight="400"><tspan class="TextPosition" x="1331" y="6171"><tspan fill="rgb(0,0,0)" stroke="none">20</tspan></tspan></tspan></text>
 <text class="TextShape"><tspan class="TextParagraph" font-family="Liberation Sans, sans-serif" font-size="353px" font-weight="400"><tspan class="TextPosition" x="1331" y="5599"><tspan fill="rgb(0,0,0)" stroke="none">30</tspan></tspan></tspan></text>
 <text class="TextShape"><tspan class="TextParagraph" font-family="Liberation Sans, sans-serif" font-size="353px" font-weight="400"><tspan class="TextPosition" x="1331" y="5026"><tspan fill="rgb(0,0,0)" stroke="none">40</tspan></tspan></tspan></text>
 <text class="TextShape"><tspan class="TextParagraph" font-family="Liberation Sans, sans-serif" font-size="353px" font-weight="400"><tspan class="TextPosition" x="1331" y="4454"><tspan fill="rgb(0,0,0)" stroke="none">50</tspan></tspan></tspan></text>
 <text class="TextShape"><tspan class="TextParagraph" font-family="Liberation Sans, sans-serif" font-size="353px" font-weight="400"><tspan class="TextPosition" x="1331" y="3882"><tspan fill="rgb(0,0,0)" stroke="none">60</tspan></tspan></tspan></text>
 <text class="TextShape"><tspan class="TextParagraph" font-family="Liberation Sans, sans-serif" font-size="353px" font-weight="400"><tspan class="TextPosition" x="1331" y="3309"><tspan fill="rgb(0,0,0)" stroke="none">70</tspan></tspan></tspan></text>
 <text class="TextShape"><tspan class="TextParagraph" font-family="Liberation Sans, sans-serif" font-size="353px" font-weight="400"><tspan class="TextPosition" x="1331" y="2737"><tspan fill="rgb(0,0,0)" stroke="none">80</tspan></tspan></tspan></text>
 <text class="TextShape"><tspan class="TextParagraph" font-family="Liberation Sans, sans-serif" font-size="353px" font-weight="400"><tspan class="TextPosition" x="1331" y="2165"><tspan fill="rgb(0,0,0)" stroke="none">90</tspan></tspan></tspan></text>
 <text class="TextShape"><tspan class="TextParagraph" font-family="Liberation Sans, sans-serif" font-size="353px" font-weight="400"><tspan class="TextPosition" x="1145" y="1593"><tspan fill="rgb(0,0,0)" stroke="none">100</tspan></tspan></tspan></text>
 <text class="TextShape"><tspan class="TextParagraph" font-family="Liberation Sans, sans-serif" font-size="459px" font-weight="400"><tspan class="TextPosition" x="5789" y="851"><tspan fill="rgb(0,0,0)" stroke="none">Damage Power Check</tspan></tspan></tspan></text>
 <text class="TextShape"><tspan class="TextParagraph" font-family="Liberation Sans, sans-serif" font-size="318px" font-weight="400"><tspan class="TextPosition" x="6916" y="8410"><tspan fill="rgb(0,0,0)" stroke="none">Toughness Difference</tspan></tspan></tspan></text>
 <text class="TextShape" transform="translate(837,5947) rotate(-90) translate(-837,-5947)"><tspan class="TextParagraph" font-family="Liberation Sans, sans-serif" font-size="318px" font-weight="400"><tspan class="TextPosition" x="837" y="5947"><tspan fill="rgb(0,0,0)" stroke="none">Chance of Success</tspan></tspan></tspan></text>
</svg>